<?xml version="1.0" encoding="UTF-8" standalone="no"?>
<!DOCTYPE svg PUBLIC "-//W3C//DTD SVG 1.1//EN" "http://www.w3.org/Graphics/SVG/1.1/DTD/svg11.dtd">
<!-- Created with Vectornator (http://vectornator.io/) -->
<svg height="1024.0pt" stroke-miterlimit="10" style="fill-rule:nonzero;clip-rule:evenodd;stroke-linecap:round;stroke-linejoin:round;" version="1.1" viewBox="0 0 1024 1024" width="1024.0pt" xml:space="preserve" xmlns="http://www.w3.org/2000/svg" xmlns:xlink="http://www.w3.org/1999/xlink">
<defs/>
<g id="Layer-1">
<g opacity="1">
<g opacity="1">
<g opacity="1">
<path d="M101.308 144.083L253.197 144.083C295.029 144.083 321.421 166.345 332.373 210.87L332.373 387.266C332.373 428.56 306.699 452.977 255.351 460.517L85.1498 460.517C55.7057 460.517 34.0715 441.396 20.2471 403.155C17.3745 396.512 15.9382 387.176 15.9382 375.147L15.9382 221.373C15.9382 185.466 35.0589 161.139 73.3004 148.391C79.9433 145.519 89.2792 144.083 101.308 144.083ZM104.54 263.385L104.54 339.06C107.053 359.527 115.941 369.761 131.201 369.761L213.07 369.761C233.538 369.761 243.771 357.552 243.771 333.135L243.771 273.349C243.771 246.239 229.588 232.684 201.221 232.684L145.205 232.684C118.095 232.684 104.54 242.918 104.54 263.385Z" fill="#db5c15" fill-rule="nonzero" opacity="1" stroke="none"/>
<path d="M588.483 65.4452L660.388 65.4452C666.492 66.1633 669.544 69.3052 669.544 74.8709L669.544 451.091C669.544 457.375 666.402 460.517 660.118 460.517L429.054 460.517C395.66 460.517 370.884 445.257 354.725 414.735C350.237 404.861 347.993 393.101 347.993 379.456L347.993 226.221C347.993 182.952 369.268 155.214 411.818 143.005L579.057 143.005L579.057 74.6016C579.775 68.4973 582.917 65.4452 588.483 65.4452ZM438.479 260.961L438.479 340.407C441.172 360.156 450.957 370.03 467.834 370.03L579.057 370.03L579.057 228.106C579.057 229.004 579.506 229.453 580.404 229.453L492.341 229.453C457.869 229.453 440.634 239.058 440.634 258.268C439.198 258.268 438.479 259.166 438.479 260.961Z" fill="#db5c15" fill-rule="nonzero" opacity="1" stroke="none"/>
<path d="M927.001 65.4452L998.905 65.4452C1005.01 66.1633 1008.06 69.3052 1008.06 74.8709L1008.06 451.091C1008.06 457.375 1004.92 460.517 998.636 460.517L767.571 460.517C734.178 460.517 709.401 445.257 693.243 414.735C688.755 404.861 686.51 393.101 686.51 379.456L686.51 226.221C686.51 182.952 707.786 155.214 750.336 143.005L917.575 143.005L917.575 74.6016C918.293 68.4973 921.435 65.4452 927.001 65.4452ZM776.997 260.961L776.997 340.407C779.69 360.156 789.475 370.03 806.352 370.03L917.575 370.03L917.575 228.106C917.575 229.004 918.024 229.453 918.922 229.453L830.858 229.453C796.387 229.453 779.152 239.058 779.152 258.268C777.715 258.268 776.997 259.166 776.997 260.961Z" fill="#db5c15" fill-rule="nonzero" opacity="1" stroke="none"/>
</g>
<g opacity="1">
<g opacity="1">
<path d="M825.839 710.543C838.158 693.651 844.713 684.654 845.504 683.552L846.512 683.686L853.027 688.362C853.594 688.769 853.675 689.256 853.267 689.823L839.328 709.247L844.943 713.278L854.173 700.417C854.633 699.913 855.114 699.841 855.617 700.201L862.18 704.912C862.748 705.319 862.828 705.806 862.421 706.373L853.209 719.209L858.825 723.24L872.782 703.791C873.242 703.287 873.724 703.215 874.226 703.575L880.62 708.164C881.187 708.571 881.267 709.058 880.86 709.625L861.581 736.488C861.174 737.055 860.687 737.136 860.12 736.728L825.939 712.199C825.372 711.791 825.339 711.239 825.839 710.543Z" fill="#000000" fill-rule="nonzero" opacity="1" stroke="none"/>
<path d="M847.476 680.547L852.308 673.813C852.681 673.295 857.585 674.826 867.023 678.406C874.139 680.739 878.875 682.419 881.231 683.447L880.83 684.006C868.298 668.383 862.152 660.302 862.393 659.762L867.19 653.076C867.651 652.572 868.156 652.517 868.707 652.913C886.721 675.883 895.837 687.729 896.056 688.451L890.822 695.744C890.171 696.308 885.6 694.98 877.108 691.758C876.399 691.618 866.469 688.261 847.32 681.688L847.476 680.547Z" fill="#000000" fill-rule="nonzero" opacity="1" stroke="none"/>
<path d="M869.385 649.864C881.704 632.972 888.259 623.975 889.05 622.873L890.059 623.007L896.574 627.683C897.141 628.09 897.221 628.577 896.814 629.145L882.874 648.569L888.49 652.599L897.719 639.739C898.18 639.234 898.661 639.162 899.163 639.523L905.727 644.233C906.294 644.64 906.375 645.127 905.967 645.695L896.756 658.531L902.371 662.561L916.329 643.112C916.789 642.608 917.27 642.536 917.773 642.897L924.166 647.485C924.734 647.892 924.814 648.379 924.407 648.946L905.128 675.809C904.721 676.377 904.234 676.457 903.667 676.05L869.486 651.52C868.919 651.113 868.885 650.561 869.385 649.864Z" fill="#000000" fill-rule="nonzero" opacity="1" stroke="none"/>
<path d="M891.04 619.844L896.379 612.405L928.825 615.949L928.389 616.557L906.096 600.558C905.643 600.061 905.579 599.586 905.904 599.132L910.667 592.495C911.128 591.99 911.609 591.918 912.111 592.279L946.219 616.757C946.786 617.164 946.866 617.651 946.459 618.218L941.469 625.171C940.95 625.314 930.018 624.294 908.674 622.113L909.11 621.505L931.354 637.469C931.922 637.876 932.002 638.363 931.595 638.931L926.849 645.543C926.442 646.11 925.955 646.19 925.388 645.783L891.256 621.288C890.751 620.828 890.679 620.347 891.04 619.844Z" fill="#000000" fill-rule="nonzero" opacity="1" stroke="none"/>
<path d="M912.897 589.491L932.629 561.996C933.089 561.492 933.571 561.42 934.073 561.78L940.491 566.386C941.058 566.793 941.138 567.28 940.731 567.847L933.718 577.62L960.508 596.846C961.075 597.254 961.155 597.741 960.748 598.308L956.282 604.531C955.874 605.099 955.387 605.179 954.82 604.772L928.03 585.545L921.016 595.318C920.609 595.885 920.122 595.966 919.555 595.558L913.113 590.935C912.608 590.475 912.536 589.993 912.897 589.491Z" fill="#000000" fill-rule="nonzero" opacity="1" stroke="none"/>
<path d="M939.943 551.702L954.72 531.111C955.18 530.607 955.662 530.535 956.164 530.895L962.582 535.501C963.149 535.908 963.229 536.395 962.822 536.963L950.33 554.369C949.273 556.287 949.458 557.757 950.884 558.781L951.613 559.304C953.364 560.56 955.088 560.005 956.786 557.639L964.044 547.526C967.903 543.175 971.956 542.523 976.202 545.57L984.273 551.363C988.276 554.236 988.739 558.312 985.662 563.593L970.902 584.159C970.495 584.727 970.008 584.807 969.44 584.4L963.168 579.898C962.664 579.438 962.592 578.957 962.952 578.454L974.659 562.142C976.45 559.646 976.349 557.683 974.356 556.252C972.784 555.124 971.117 555.462 969.355 557.267L963.057 566.043C958.706 572.105 953.987 573.309 948.898 569.657L941.581 564.406C937.48 561.463 936.934 557.229 939.943 551.702Z" fill="#000000" fill-rule="nonzero" opacity="1" stroke="none"/>
</g>
<g opacity="1">
<path d="M661.236 491.909C662.546 486.01 665.883 468.446 670.238 467.901C677.155 467.037 685.176 477.573 688.994 482.156C699.424 494.672 710.751 512.534 710.751 529.42C735.384 532.157 754.919 550.42 768.519 569.933C773.007 576.372 780.523 590.189 780.523 590.189C784.087 586.626 849.95 503.912 849.95 503.912C849.95 503.912 965.401 502.437 964.331 503.912C937.84 540.437 812.264 712.616 812.783 713.978C814.512 718.516 953.035 912.366 964.331 930.046L846.544 933.047C846.544 933.047 842.397 926.545 840.146 923.294C823.178 931.778 810.726 944.776 791.026 949.552C744.511 960.828 700.354 938.709 653.733 941.299C641.666 941.97 629.324 947.992 619.222 954.053C616.345 955.78 613.575 958.555 610.22 958.555C608.54 950.156 608.131 941.401 610.22 933.047C568.207 933.047 568.207 933.047 526.193 933.047C527.38 927.116 531.82 922.311 535.196 917.292C541.739 907.566 548.121 897.732 554.702 888.033C570.979 864.046 587.384 840.135 603.468 816.01C606.777 811.047 610.735 806.428 613.221 801.006C613.591 800.197 598.217 783.564 595.965 780.749C580.473 761.384 567.727 741.286 561.454 716.979C553.25 685.188 555.95 653.637 569.707 623.95C572.085 618.819 588.715 594.173 589.213 590.189C589.953 584.27 531.445 503.912 531.445 503.912C567.081 503.912 567.081 503.912 602.717 503.912C604.214 494.933 612.935 464.034 618.472 462.65C625.993 460.769 642.522 476.313 646.981 479.905C651.819 483.802 656.484 487.907 661.236 491.909Z" fill="#0d0e0d" fill-rule="nonzero" opacity="1" stroke="none"/>
<path d="M675.425 481.933C671.541 481.359 668.588 483.969 667.115 486.222C665.599 488.542 664.77 491.169 664.033 494.263C662.559 500.452 661.862 508.466 661.486 516.378C660.737 532.174 661.348 547.933 661.352 548.009C661.39 548.873 661.799 549.71 662.29 550.421L681.203 577.914C682.697 580.085 685.708 580.554 687.791 578.94L714.562 558.195C716.174 556.948 702.43 552.322 701.695 550.421C701.674 550.367 709.62 536.162 701.695 519.193C697.728 510.699 693.415 502.2 689.23 495.47C687.133 492.097 685.031 489.2 682.931 486.892C680.93 484.691 678.761 482.426 675.425 481.933Z" fill="#000000" fill-rule="nonzero" opacity="1" stroke="none"/>
<path d="M669.134 539.9C669.134 539.9 666.853 488.166 676.256 489.556C685.658 490.946 706.744 545.46 706.744 545.46L684.718 562.496L669.134 539.9Z" fill="#db5c15" fill-rule="nonzero" opacity="1" stroke="none"/>
<path d="M619.035 482.264C616.499 483.21 615.335 484.284 614.378 485.369C613.375 486.508 612.373 488.022 611.791 488.991C610.643 490.911 610.325 492.409 610.239 492.612C594.507 522.459 607.222 550.57 616.965 574.362C556.933 624.84 545.781 713.303 600.926 773.043C606.771 779.375 618.5 790.271 630.935 800.466C638.379 806.568 648.088 809.967 654.984 814.435C653.271 838.091 648.253 862.003 648.009 881.18C647.53 881.641 646.929 881.747 646.457 882.215C633.702 894.876 623.174 910.683 623.174 928.263C623.174 932.621 626.578 936.026 630.935 936.024C635.211 936.024 638.587 935.019 641.283 933.955C644.029 932.872 646.473 931.74 648.009 931.368C657.805 928.993 669.49 929.244 680.088 930.85C701.201 934.049 723.38 940.386 746.316 942.751C769.219 945.11 793.063 943.367 815.647 929.816C846.556 911.27 869.211 872.706 860.144 835.131C859.064 830.659 857.553 824.095 854.97 817.54C852.455 811.164 848.651 803.773 841 799.948C836.409 797.653 830.731 800.11 829.617 805.122C825.822 822.201 818.912 831.641 810.473 837.718C806.675 840.453 800.708 840.77 795.986 842.375C796.035 842.017 795.937 841.699 795.986 841.34C797.496 830.273 798.433 818.983 798.573 817.022C801.567 775.107 782.954 742.928 750.455 718.199C743.555 712.949 728.664 703.652 721.998 696.985C716.034 691.022 715.062 684.577 713.202 677.324C727.431 670.641 740.407 667.082 753.559 665.941C769.023 664.599 786.276 663.894 806.851 655.076C812.71 652.565 817.999 650.746 823.408 647.315C829.013 643.76 833.473 638.434 835.308 630.241C836.334 625.666 834.126 621.515 832.204 619.375C830.215 617.16 827.893 615.567 825.478 614.201C820.65 611.474 815.078 609.269 808.921 606.958C802.784 604.654 796.49 602.415 791.329 600.232C786.129 598.031 782.213 595.804 781.499 595.058C772.175 585.31 765.218 570.526 753.559 557.805C733.935 536.396 707.799 529.692 682.675 525.726C680.991 525.46 680.974 528.138 679.571 528.83C678.883 527.984 678.214 527.062 677.501 526.243C672.783 520.826 667.344 515.745 665.084 513.308C663.517 511.621 656.415 502.846 648.527 495.199C644.53 491.324 640.701 487.585 636.109 484.851C631.856 482.319 625.534 479.842 619.035 482.264Z" fill="#000000" fill-rule="nonzero" opacity="1" stroke="none"/>
<path d="M680.742 546.676C681.492 546.676 681.492 546.676 682.242 546.676C682.242 540.674 682.242 540.674 682.242 534.672C707.089 538.595 731.387 544.702 749.013 563.931C759.488 575.359 766.161 590.349 776.772 601.443C786.03 611.122 811.769 617.869 821.786 621.699C819.312 626.648 809.387 624.23 808.282 629.202C806.409 637.628 817.049 643.343 804.531 648.708C766.052 665.198 724.026 643.129 685.993 665.213C629.484 698.025 649.232 752.734 649.232 804.757C634.142 798.721 618.689 780.359 607.969 768.745C554.637 710.969 565.638 623.675 626.725 576.685C616.374 550.808 603.204 524.171 618.472 496.41C618.472 496.41 620.63 491.282 622.974 490.408C633.897 486.337 656.394 515.262 660.485 519.667C665.682 525.263 680.742 538.81 680.742 546.676Z" fill="#db5c15" fill-rule="nonzero" opacity="1" stroke="none"/>
<path d="M703.249 673.466C706.108 686.333 708.102 694.073 717.503 703.475C725.304 711.276 740.486 720.457 746.762 725.232C777.695 748.767 794.561 778.529 791.777 817.511C791.529 820.972 788.008 836.005 783.524 837.767C774.52 841.304 749.504 843.376 741.511 843.769C734.267 844.125 727.006 843.769 719.754 843.769C725.411 838.112 733.746 838.161 738.51 831.015C739.863 828.985 729.717 817.748 725.756 810.759C720.324 801.173 713.752 789.88 713.752 778.498C713.002 778.498 713.002 778.498 712.252 778.498C712.252 802.119 703.625 827.755 688.244 846.02C681.685 853.808 665.431 858.253 656.734 864.775C660.565 834.13 665.831 807.069 662.736 775.498C660.857 756.331 654.829 734.347 661.986 715.479C666.885 702.563 687.658 673.466 703.249 673.466Z" fill="#db5c14" fill-rule="nonzero" opacity="1" stroke="none"/>
<path d="M838.291 807.758C847.952 812.588 851.063 828.517 853.296 837.767C861.356 871.159 841.318 906.923 812.783 924.044C771.52 948.802 725.757 930.637 682.242 924.044C670.92 922.329 658.187 922.078 646.981 924.794C641.906 926.025 637.198 929.296 631.976 929.296C631.976 900.559 667.336 871.161 692.746 863.275C746.237 846.674 821.877 881.62 838.291 807.758Z" fill="#db5b14" fill-rule="nonzero" opacity="1" stroke="none"/>
<path d="M809.413 637.454C808.945 637.454 808.021 636.254 808.021 632.686C808.021 629.118 807.203 626.794 814.439 625.472C821.674 624.15 821.674 621.601 821.674 621.601C821.674 621.601 828.672 625.176 828.421 630.213C828.17 635.249 823.329 640.031 820.67 642.034C818.011 644.038 796.845 654.508 786.764 654.71C764.424 655.157 734.481 649.847 712.252 654.71C678.946 661.995 647.593 694.23 646.228 729.733C645.719 742.968 646.065 755.631 647.257 768.745C639.222 768.745 630.165 732.695 629.726 725.232C627.958 695.185 641.977 656.148 674.74 647.958C660.499 649.053 647.576 652.576 634.227 657.711C627.794 660.185 631.846 659.961 628.225 659.961C632.963 648.116 646.602 639.309 657.484 633.703C703.6 609.947 736.359 634.197 782.774 637.454C791.754 638.085 810.181 637.454 809.413 637.454Z" fill="#f2eee3" fill-rule="nonzero" opacity="1" stroke="none"/>
<path d="M734.025 877.818C722.681 879.328 707.666 881.425 701.799 893.139C718.868 893.139 736.364 897.754 751.673 905.396C743.489 909.111 726.098 909.476 724.051 917.653C737.722 925.331 751.358 932.667 767.019 935.273C756.493 943.155 736.875 936.576 726.353 934.507C702.823 929.879 680.671 923.279 656.53 924.548C646.863 925.056 638.014 930.676 628.907 930.676C628.907 908.257 667.427 867.145 690.839 864.029C698.288 863.037 734.025 866.399 734.025 877.818Z" fill="#f2eee3" fill-rule="nonzero" opacity="1" stroke="none"/>
<path d="M589.963 666.713C592.003 685.069 594.656 704.288 601.967 721.481C611.185 743.157 647.77 773.968 648.027 779.249C648.027 779.249 649.232 796.254 649.232 804.757C638.415 800.43 627.372 789.462 619.222 781.585C582.867 746.441 568.634 715.772 589.963 666.713Z" fill="#be4b0f" fill-rule="nonzero" opacity="1" stroke="none"/>
<path d="M753.515 597.692C736.782 597.692 724.918 597.295 708.5 593.19C708.5 577.353 753.515 582.763 753.515 597.692Z" fill="#100f0f" fill-rule="nonzero" opacity="1" stroke="none"/>
<path d="M631.226 524.919C645.41 524.919 648.96 549.544 650.732 560.18C634.154 554.654 630.476 543.01 631.226 524.919Z" fill="#0f0f0f" fill-rule="nonzero" opacity="1" stroke="none"/>
</g>
<path d="M123.049 533.32L194.415 533.32C200.519 534.038 203.571 537.18 203.571 542.746L203.571 615.997C203.571 622.281 200.429 625.423 194.145 625.423L155.365 625.423C135.975 625.423 126.28 639.157 126.28 666.626L126.28 687.632L194.684 687.632C200.609 688.889 203.571 692.031 203.571 697.058L203.571 768.155C203.571 774.439 200.429 777.581 194.145 777.581L126.28 777.581L126.28 920.582C126.28 926.866 123.138 930.008 116.855 930.008L45.7577 930.008C39.4739 930.008 36.332 926.866 36.332 920.582L36.332 615.997C36.332 575.242 55.8118 549.119 94.7714 537.629C101.414 534.756 110.84 533.32 123.049 533.32Z" fill="#000000" fill-rule="nonzero" opacity="1" stroke="none"/>
<path d="M309.947 613.573L461.836 613.573C503.668 613.573 530.06 635.836 541.012 680.361L541.012 856.757C541.012 898.05 515.338 922.467 463.99 930.008L293.789 930.008C264.344 930.008 242.71 910.887 228.886 872.646C226.013 866.003 224.577 856.667 224.577 844.638L224.577 690.864C224.577 654.957 243.698 630.629 281.939 617.882C288.582 615.009 297.918 613.573 309.947 613.573ZM313.179 732.876L313.179 808.551C315.692 829.018 324.579 839.252 339.84 839.252L421.709 839.252C442.176 839.252 452.41 827.043 452.41 802.626L452.41 742.84C452.41 715.73 438.226 702.175 409.86 702.175L353.844 702.175C326.734 702.175 313.179 712.408 313.179 732.876Z" fill="#000000" fill-rule="nonzero" opacity="1" stroke="none"/>
</g>
</g>
</g>
</g>
</svg>
